<svg xmlns="http://www.w3.org/2000/svg" version="1.1" xmlns:xlink="http://www.w3.org/1999/xlink" xmlns:svgjs="http://svgjs.dev/svgjs" viewBox="0 0 28.52016156376325 5.023492710551465"><g transform="matrix(1,0,0,1,6.181199610234825,1.2661007561546387)"><rect width="28.52016156376325" height="28.52016156376325" x="-6.181199610234826" y="-13.014435182760531" fill="#fffdfa"></rect><g><path d=" M 0.43536474609375003 0.2432636718750001 L 0.026063964843750002 0.2432636718750001 L 0.026063964843750002 0.022202636718750224 L 1.40262744140625 0.022202636718750224 L 1.40262744140625 0.2432636718750001 L 0.99332666015625 0.2432636718750001 L 0.99332666015625 1.4576513671875002 L 0.43536474609375003 1.4576513671875002 L 0.43536474609375003 0.2432636718750001 M 2.01850927734375 0.38516748046875016 L 1.8524721679687501 0.023167968750000156 L 2.440359375 0.023167968750000156 L 3.14312109375 1.4586166992187501 L 2.51275927734375 1.4586166992187501 L 2.40657275390625 1.2288676757812502 L 1.84088818359375 1.2288676757812502 L 1.7356669921875 1.4586166992187501 L 1.49143798828125 1.4586166992187501 L 2.01850927734375 0.38516748046875016 M 2.305212890625 1.0078066406250001 L 2.12373046875 0.6139511718750001 L 1.94321337890625 1.0078066406250001 L 2.305212890625 1.0078066406250001 M 3.3690087890625002 1.1390917968750003 Q 3.471333984375 1.1912197265625002 3.5833125000000003 1.2172836914062501 Q 3.695291015625 1.24334765625 3.7918242187500004 1.24334765625 Q 3.90283740234375 1.24334765625 3.9544826660156254 1.21149169921875 Q 4.0061279296875005 1.1796357421875001 4.0061279296875005 1.1246118164062502 Q 4.0061279296875005 1.1072358398437503 3.9998532714843753 1.0888945312500002 Q 3.99357861328125 1.0705532226562502 3.975719970703125 1.0526945800781253 Q 3.9578613281250004 1.0348359375000002 3.926488037109375 1.0169772949218752 Q 3.8951147460937503 0.9991186523437502 3.8449174804687503 0.9817426757812502 L 3.6721230468750004 0.9228574218750002 Q 3.4867792968750004 0.8591455078125002 3.3931420898437503 0.7505456542968751 Q 3.2995048828125 0.6419458007812502 3.2995048828125 0.4923193359375002 Q 3.2995048828125 0.3957861328125001 3.340048828125 0.3064929199218751 Q 3.3805927734375003 0.21719970703125013 3.4626459960937503 0.14914379882812523 Q 3.5446992187500004 0.0810878906250001 3.6697097167968753 0.04054394531250005 Q 3.79472021484375 2.220446049250313e-16 3.9626879882812505 2.220446049250313e-16 Q 4.04570654296875 2.220446049250313e-16 4.1219677734375 0.009653320312500213 Q 4.19822900390625 0.019306640625000204 4.265319580078125 0.034751953125000234 Q 4.33241015625 0.05019726562500004 4.3883994140625004 0.06998657226562521 Q 4.444388671875 0.08977587890625016 4.486863281250001 0.10908251953125014 L 4.382607421875 0.2973222656250001 Q 4.351716796875 0.2780156250000001 4.317447509765625 0.2635356445312502 Q 4.28317822265625 0.24905566406250013 4.248908935546876 0.23940234375000014 Q 4.2146396484375 0.22974902343750014 4.181818359375001 0.22492236328125026 Q 4.1489970703125 0.22009570312500015 4.1219677734375 0.22009570312500015 Q 4.0756318359375 0.22009570312500015 4.0408798828125 0.2321623535156252 Q 4.0061279296875005 0.24422900390625024 3.982477294921875 0.2640183105468752 Q 3.9588266601562503 0.28380761718750014 3.946760009765625 0.3084235839843752 Q 3.934693359375 0.33303955078125025 3.934693359375 0.3571728515625001 Q 3.934693359375 0.3784101562500002 3.944829345703125 0.39819946289062513 Q 3.95496533203125 0.4179887695312501 3.9795812988281254 0.4368127441406251 Q 4.004197265625001 0.4556367187500001 4.044258544921875 0.47446069335937513 Q 4.08431982421875 0.49328466796875015 4.14417041015625 0.5135566406250002 L 4.26001025390625 0.5521699218750001 Q 4.44825 0.6149165039062502 4.54767919921875 0.7249643554687502 Q 4.6471083984375 0.8350122070312502 4.6471083984375 0.9913959960937502 Q 4.6471083984375 1.09758251953125 4.599324462890626 1.1873583984375002 Q 4.55154052734375 1.2771342773437502 4.4569379882812505 1.3422941894531253 Q 4.36233544921875 1.4074541015625002 4.221879638671876 1.4436540527343753 Q 4.081423828125001 1.4798540039062502 3.8960800781250002 1.4798540039062502 Q 3.8072695312500002 1.4798540039062502 3.7247336425781254 1.4706833496093752 Q 3.6421977539062502 1.4615126953125002 3.563523193359375 1.4431713867187501 Q 3.4848486328125 1.4248300781250003 3.40858740234375 1.3968354492187502 Q 3.332326171875 1.3688408203125002 3.25606494140625 1.3311928710937502 L 3.3690087890625002 1.1390917968750003 M 5.1761103515625 0.2432636718750001 L 4.766809570312501 0.2432636718750001 L 4.766809570312501 0.022202636718750224 L 6.143373046875 0.022202636718750224 L 6.143373046875 0.2432636718750001 L 5.7340722656250005 0.2432636718750001 L 5.7340722656250005 1.4576513671875002 L 5.1761103515625 1.4576513671875002 L 5.1761103515625 0.2432636718750001 M 6.6781669921875 1.05317724609375 L 6.1916396484375 0.023167968750000156 L 6.80269482421875 0.023167968750000156 L 7.15600634765625 0.7626123046875002 L 7.440779296875 0.023167968750000156 L 7.6936962890625 0.023167968750000156 L 7.2650888671875 1.05317724609375 L 7.2650888671875 1.4576513671875002 L 6.6781669921875 1.4576513671875002 L 6.6781669921875 1.05317724609375 M 8.784521484375 0.2432636718750001 L 8.375220703125 0.2432636718750001 L 8.375220703125 0.022202636718750224 L 9.751784179687501 0.022202636718750224 L 9.751784179687501 0.2432636718750001 L 9.3424833984375 0.2432636718750001 L 9.3424833984375 1.4576513671875002 L 8.784521484375 1.4576513671875002 L 8.784521484375 0.2432636718750001 M 9.97091455078125 0.023167968750000156 L 10.7982041015625 0.023167968750000156 Q 10.95844921875 0.023167968750000156 11.078633056640625 0.056954589843750236 Q 11.19881689453125 0.0907412109375001 11.279422119140625 0.15155712890625006 Q 11.36002734375 0.21237304687500025 11.4005712890625 0.2973222656250001 Q 11.441115234375 0.38227148437500014 11.441115234375 0.4845966796875002 Q 11.441115234375 0.6110551757812501 11.3812646484375 0.7090363769531252 Q 11.3214140625 0.8070175781250002 11.203643554687499 0.8649375000000001 L 11.5048271484375 1.4586166992187501 L 10.87446533203125 1.4586166992187501 L 10.64664697265625 0.9373374023437502 L 10.52887646484375 0.9373374023437502 L 10.52887646484375 1.4576513671875002 L 9.97091455078125 1.4576513671875002 L 9.97091455078125 0.023167968750000156 M 10.5626630859375 0.7626123046875002 Q 10.63120166015625 0.7626123046875002 10.68526025390625 0.7433056640625002 Q 10.73931884765625 0.7239990234375002 10.776966796875 0.6887644042968751 Q 10.81461474609375 0.6535297851562502 10.834886718749999 0.6047805175781251 Q 10.855158691406249 0.5560312500000002 10.855158691406249 0.49811132812500014 Q 10.855158691406249 0.4401914062500001 10.834886718749999 0.39144213867187516 Q 10.81461474609375 0.34269287109375024 10.776966796875 0.30745825195312526 Q 10.73931884765625 0.27222363281250006 10.68526025390625 0.2529169921875001 Q 10.63120166015625 0.2336103515625001 10.5626630859375 0.2336103515625001 L 10.529841796875 0.2336103515625001 L 10.52887646484375 0.7626123046875002 L 10.5626630859375 0.7626123046875002 M 11.780912109375 0.023167968750000156 L 12.993369140625 0.023167968750000156 L 12.993369140625 0.24422900390625024 L 12.33983935546875 0.24422900390625024 L 12.3388740234375 0.6313271484375002 L 12.838916015625 0.6313271484375002 L 12.838916015625 0.8523881835937502 L 12.3388740234375 0.8523881835937502 L 12.3388740234375 1.2365903320312501 L 12.993369140625 1.2365903320312501 L 12.993369140625 1.4576513671875002 L 11.780912109375 1.4576513671875002 L 11.780912109375 0.023167968750000156 M 13.6864775390625 0.38516748046875016 L 13.5204404296875 0.023167968750000156 L 14.10832763671875 0.023167968750000156 L 14.81108935546875 1.4586166992187501 L 14.1807275390625 1.4586166992187501 L 14.074541015625 1.2288676757812502 L 13.5088564453125 1.2288676757812502 L 13.40363525390625 1.4586166992187501 L 13.15940625 1.4586166992187501 L 13.6864775390625 0.38516748046875016 M 13.97318115234375 1.0078066406250001 L 13.791698730468749 0.6139511718750001 L 13.611181640625 1.0078066406250001 L 13.97318115234375 1.0078066406250001 M 15.03697705078125 1.1390917968750003 Q 15.13930224609375 1.1912197265625002 15.25128076171875 1.2172836914062501 Q 15.36325927734375 1.24334765625 15.459792480468751 1.24334765625 Q 15.570805664062501 1.24334765625 15.622450927734375 1.21149169921875 Q 15.674096191406251 1.1796357421875001 15.674096191406251 1.1246118164062502 Q 15.674096191406251 1.1072358398437503 15.667821533203126 1.0888945312500002 Q 15.661546875 1.0705532226562502 15.643688232421876 1.0526945800781253 Q 15.62582958984375 1.0348359375000002 15.594456298828126 1.0169772949218752 Q 15.5630830078125 0.9991186523437502 15.5128857421875 0.9817426757812502 L 15.34009130859375 0.9228574218750002 Q 15.154747558593751 0.8591455078125002 15.061110351562501 0.7505456542968751 Q 14.967473144531251 0.6419458007812502 14.967473144531251 0.4923193359375002 Q 14.967473144531251 0.3957861328125001 15.00801708984375 0.3064929199218751 Q 15.04856103515625 0.21719970703125013 15.1306142578125 0.14914379882812523 Q 15.21266748046875 0.0810878906250001 15.337677978515625 0.04054394531250005 Q 15.462688476562501 2.220446049250313e-16 15.630656250000001 2.220446049250313e-16 Q 15.7136748046875 2.220446049250313e-16 15.78993603515625 0.009653320312500213 Q 15.866197265625 0.019306640625000204 15.933287841796876 0.034751953125000234 Q 16.00037841796875 0.05019726562500004 16.05636767578125 0.06998657226562521 Q 16.11235693359375 0.08977587890625016 16.15483154296875 0.10908251953125014 L 16.05057568359375 0.2973222656250001 Q 16.01968505859375 0.2780156250000001 15.985415771484377 0.2635356445312502 Q 15.951146484375 0.24905566406250013 15.916877197265626 0.23940234375000014 Q 15.882607910156251 0.22974902343750014 15.84978662109375 0.22492236328125026 Q 15.81696533203125 0.22009570312500015 15.78993603515625 0.22009570312500015 Q 15.74360009765625 0.22009570312500015 15.70884814453125 0.2321623535156252 Q 15.674096191406251 0.24422900390625024 15.650445556640626 0.2640183105468752 Q 15.626794921875 0.28380761718750014 15.614728271484376 0.3084235839843752 Q 15.60266162109375 0.33303955078125025 15.60266162109375 0.3571728515625001 Q 15.60266162109375 0.3784101562500002 15.612797607421875 0.39819946289062513 Q 15.62293359375 0.4179887695312501 15.647549560546876 0.4368127441406251 Q 15.67216552734375 0.4556367187500001 15.712226806640626 0.47446069335937513 Q 15.7522880859375 0.49328466796875015 15.812138671875001 0.5135566406250002 L 15.927978515625 0.5521699218750001 Q 16.11621826171875 0.6149165039062502 16.2156474609375 0.7249643554687502 Q 16.31507666015625 0.8350122070312502 16.31507666015625 0.9913959960937502 Q 16.31507666015625 1.09758251953125 16.267292724609376 1.1873583984375002 Q 16.219508789062502 1.2771342773437502 16.124906250000002 1.3422941894531253 Q 16.0303037109375 1.4074541015625002 15.889847900390626 1.4436540527343753 Q 15.74939208984375 1.4798540039062502 15.564048339843751 1.4798540039062502 Q 15.47523779296875 1.4798540039062502 15.392701904296876 1.4706833496093752 Q 15.310166015625 1.4615126953125002 15.231491455078126 1.4431713867187501 Q 15.15281689453125 1.4248300781250003 15.0765556640625 1.3968354492187502 Q 15.000294433593751 1.3688408203125002 14.924033203125001 1.3311928710937502 L 15.03697705078125 1.1390917968750003 M 16.5863349609375 0.023167968750000156 L 17.144296875000002 0.023167968750000156 L 17.144296875000002 0.9344414062500002 Q 17.144296875000002 1.0116679687500003 17.165051513671877 1.0681398925781251 Q 17.18580615234375 1.1246118164062502 17.222971435546874 1.1617770996093753 Q 17.26013671875 1.1989423828125 17.310333984375 1.2172836914062501 Q 17.36053125 1.2356250000000002 17.418451171875002 1.2356250000000002 Q 17.4821630859375 1.2356250000000002 17.532843017578127 1.2172836914062501 Q 17.58352294921875 1.1989423828125 17.619240234375003 1.16129443359375 Q 17.65495751953125 1.1236464843750003 17.674264160156252 1.0666918945312502 Q 17.693570800781252 1.0097373046875002 17.693570800781252 0.9325107421875002 L 17.693570800781252 0.023167968750000156 L 17.90594384765625 0.023167968750000156 L 17.90594384765625 0.8996894531250001 Q 17.90594384765625 1.0329052734375002 17.862986572265626 1.1400571289062502 Q 17.820029296875003 1.2472089843750003 17.740872070312502 1.3229875488281253 Q 17.66171484375 1.3987661132812501 17.549736328125 1.4393100585937502 Q 17.437757812500003 1.4798540039062502 17.29971533203125 1.4798540039062502 Q 17.1114755859375 1.4798540039062502 16.976329101562502 1.4397927246093751 Q 16.841182617187503 1.3997314453125003 16.754302734375003 1.3249182128906252 Q 16.667422851562502 1.2501049804687503 16.626878906250003 1.1439184570312502 Q 16.5863349609375 1.0377319335937503 16.5863349609375 0.9045161132812501 L 16.5863349609375 0.023167968750000156 M 18.20905810546875 0.023167968750000156 L 19.03634765625 0.023167968750000156 Q 19.1965927734375 0.023167968750000156 19.316776611328127 0.056954589843750236 Q 19.436960449218752 0.0907412109375001 19.517565673828127 0.15155712890625006 Q 19.598170898437502 0.21237304687500025 19.63871484375 0.2973222656250001 Q 19.6792587890625 0.38227148437500014 19.6792587890625 0.4845966796875002 Q 19.6792587890625 0.6110551757812501 19.619408203125 0.7090363769531252 Q 19.5595576171875 0.8070175781250002 19.441787109375 0.8649375000000001 L 19.742970703125 1.4586166992187501 L 19.11260888671875 1.4586166992187501 L 18.88479052734375 0.9373374023437502 L 18.76702001953125 0.9373374023437502 L 18.76702001953125 1.4576513671875002 L 18.20905810546875 1.4576513671875002 L 18.20905810546875 0.023167968750000156 M 18.800806640625 0.7626123046875002 Q 18.86934521484375 0.7626123046875002 18.92340380859375 0.7433056640625002 Q 18.97746240234375 0.7239990234375002 19.0151103515625 0.6887644042968751 Q 19.05275830078125 0.6535297851562502 19.0730302734375 0.6047805175781251 Q 19.09330224609375 0.5560312500000002 19.09330224609375 0.49811132812500014 Q 19.09330224609375 0.4401914062500001 19.0730302734375 0.39144213867187516 Q 19.05275830078125 0.34269287109375024 19.0151103515625 0.30745825195312526 Q 18.97746240234375 0.27222363281250006 18.92340380859375 0.2529169921875001 Q 18.86934521484375 0.2336103515625001 18.800806640625 0.2336103515625001 L 18.7679853515625 0.2336103515625001 L 18.76702001953125 0.7626123046875002 L 18.800806640625 0.7626123046875002 M 20.0190556640625 0.023167968750000156 L 21.2315126953125 0.023167968750000156 L 21.2315126953125 0.24422900390625024 L 20.57798291015625 0.24422900390625024 L 20.577017578125 0.6313271484375002 L 21.0770595703125 0.6313271484375002 L 21.0770595703125 0.8523881835937502 L 20.577017578125 0.8523881835937502 L 20.577017578125 1.2365903320312501 L 21.2315126953125 1.2365903320312501 L 21.2315126953125 1.4576513671875002 L 20.0190556640625 1.4576513671875002 L 20.0190556640625 0.023167968750000156" fill="#8f8f8f" fill-rule="nonzero"></path></g><g><path d=" M 0.07055475 2.4912911982421875 L 0.07055475 1.9284386982421875 L 0.2616075 1.9284386982421875 Q 0.35118825 1.9284386982421875 0.41104087499999997 1.9660943232421875 Q 0.47089349999999996 2.0037499482421874 0.501018 2.0675663232421875 Q 0.5311425 2.1313826982421875 0.5311425 2.2090721982421875 Q 0.5311425 2.2946891982421875 0.498243375 2.3581091982421873 Q 0.46534424999999996 2.4215291982421876 0.40469887499999996 2.4564101982421875 Q 0.34405349999999996 2.4912911982421875 0.2616075 2.4912911982421875 L 0.07055475 2.4912911982421875 M 0.47564999999999996 2.2090721982421875 Q 0.47564999999999996 2.1416884482421876 0.45067837499999996 2.0893669482421875 Q 0.42570674999999997 2.0370454482421874 0.37814175 2.0073173232421877 Q 0.33057675 1.9775891982421876 0.2616075 1.9775891982421876 L 0.12604725 1.9775891982421876 L 0.12604725 2.4421406982421874 L 0.2616075 2.4421406982421874 Q 0.3313695 2.4421406982421874 0.37893449999999995 2.4112234482421875 Q 0.4264995 2.3803061982421876 0.45107474999999997 2.3275883232421877 Q 0.47564999999999996 2.2748704482421873 0.47564999999999996 2.2090721982421875 M 1.0234615396728515 2.4421406982421874 L 1.0234615396728515 2.4912911982421875 L 0.6453197896728515 2.4912911982421875 L 0.6453197896728515 1.9284386982421875 L 1.0163267896728514 1.9284386982421875 L 1.0163267896728514 1.9775891982421876 L 0.7008122896728515 1.9775891982421876 L 0.7008122896728515 2.1805331982421876 L 0.9758965396728515 2.1805331982421876 L 0.9758965396728515 2.2273054482421877 L 0.7008122896728515 2.2273054482421877 L 0.7008122896728515 2.4421406982421874 L 1.0234615396728515 2.4421406982421874 M 1.1360390072021485 2.4912911982421875 L 1.1360390072021485 1.9284386982421875 L 1.1915315072021484 1.9284386982421875 L 1.1915315072021484 2.4421406982421874 L 1.5165590072021482 2.4421406982421874 L 1.5165590072021482 2.4912911982421875 L 1.1360390072021485 2.4912911982421875 M 1.6061459505615234 2.4912911982421875 L 1.6061459505615234 1.9284386982421875 L 1.6616384505615234 1.9284386982421875 L 1.6616384505615234 2.4912911982421875 L 1.6061459505615234 2.4912911982421875 M 1.7734049750976562 2.2059011982421874 Q 1.7734049750976562 2.1543724482421873 1.7912418500976561 2.1048255732421874 Q 1.8090787250976563 2.0552786982421876 1.8431669750976563 2.0144520732421873 Q 1.8772552250976562 1.9736254482421876 1.9271984750976563 1.9494465732421875 Q 1.9771417250976562 1.9252676982421875 2.040561725097656 1.9252676982421875 Q 2.1158729750976564 1.9252676982421875 2.1693836000976563 1.9597523232421876 Q 2.222894225097656 1.9942369482421876 2.248262225097656 2.0481439482421875 L 2.204660975097656 2.0750974482421873 Q 2.1864277250976563 2.0378381982421874 2.158681475097656 2.0160375732421874 Q 2.130935225097656 1.9942369482421876 2.099621600097656 1.9847239482421877 Q 2.0683079750976563 1.9752109482421876 2.0373907250976564 1.9752109482421876 Q 1.9866547250976563 1.9752109482421876 1.9478099750976563 1.9954260732421876 Q 1.9089652250976563 2.0156411982421876 1.8824081000976562 2.0493330732421873 Q 1.8558509750976562 2.0830249482421874 1.8423742250976562 2.1246443232421877 Q 1.8288974750976563 2.1662636982421875 1.8288974750976563 2.2090721982421875 Q 1.8288974750976563 2.2558444482421875 1.8447524750976563 2.2986529482421876 Q 1.8606074750976562 2.3414614482421876 1.8891464750976563 2.3743605732421873 Q 1.9176854750976562 2.4072596982421874 1.9561338500976562 2.4266820732421874 Q 1.9945822250976561 2.4461044482421874 2.0397689750976564 2.4461044482421874 Q 2.0714789750976563 2.4461044482421874 2.1047744750976562 2.4350059482421873 Q 2.138069975097656 2.4239074482421876 2.1670053500976563 2.4009176982421874 Q 2.1959407250976564 2.3779279482421876 2.213381225097656 2.3414614482421876 L 2.259360725097656 2.3652439482421874 Q 2.2419202250976564 2.4072596982421874 2.205453725097656 2.4365914482421873 Q 2.168987225097656 2.4659231982421876 2.1241968500976562 2.4809854482421874 Q 2.079406475097656 2.4960476982421875 2.0365979750976564 2.4960476982421875 Q 1.9787272250976562 2.4960476982421875 1.930369475097656 2.4710760732421875 Q 1.8820117250976562 2.4461044482421874 1.8467343500976563 2.4044850732421876 Q 1.8114569750976561 2.3628656982421874 1.7924309750976561 2.3109405732421875 Q 1.7734049750976562 2.2590154482421876 1.7734049750976562 2.2059011982421874 M 2.362397709594726 2.4912911982421875 L 2.362397709594726 1.9284386982421875 L 2.4178902095947263 1.9284386982421875 L 2.4178902095947263 2.4912911982421875 L 2.362397709594726 2.4912911982421875 M 2.793642484130859 2.4952549482421875 Q 2.734186234130859 2.4952549482421875 2.685828484130859 2.4714724482421873 Q 2.6374707341308588 2.4476899482421874 2.602589734130859 2.4068633232421877 Q 2.567708734130859 2.3660366982421874 2.548682734130859 2.3149043232421875 Q 2.529656734130859 2.2637719482421876 2.529656734130859 2.2098649482421875 Q 2.529656734130859 2.1535796982421873 2.549475484130859 2.1024473232421874 Q 2.569294234130859 2.0513149482421875 2.605364359130859 2.0112810732421877 Q 2.641434484130859 1.9712471982421875 2.689792234130859 1.9478610732421875 Q 2.738149984130859 1.9244749482421875 2.794435234130859 1.9244749482421875 Q 2.853891484130859 1.9244749482421875 2.902249234130859 1.9490501982421875 Q 2.950606984130859 1.9736254482421876 2.985091609130859 2.0148484482421876 Q 3.019576234130859 2.0560714482421876 3.0386022341308587 2.1068074482421877 Q 3.057628234130859 2.1575434482421874 3.057628234130859 2.2106576982421875 Q 3.057628234130859 2.2669429482421877 3.037809484130859 2.3180753232421876 Q 3.017990734130859 2.3692076982421875 2.982316984130859 2.4092415732421877 Q 2.946643234130859 2.4492754482421875 2.898285484130859 2.4722651982421873 Q 2.849927734130859 2.4952549482421875 2.793642484130859 2.4952549482421875 M 2.585149234130859 2.2098649482421875 Q 2.585149234130859 2.2558444482421875 2.600211484130859 2.2982565732421874 Q 2.615273734130859 2.3406686982421876 2.643019984130859 2.3735678232421873 Q 2.670766234130859 2.4064669482421874 2.709214609130859 2.4258893232421874 Q 2.747662984130859 2.4453116982421874 2.793642484130859 2.4453116982421874 Q 2.842000234130859 2.4453116982421874 2.880448609130859 2.4250965732421874 Q 2.9188969841308587 2.4048814482421874 2.946246859130859 2.3711895732421873 Q 2.973596734130859 2.3374976982421876 2.987866234130859 2.2954819482421875 Q 3.002135734130859 2.2534661982421875 3.002135734130859 2.2098649482421875 Q 3.002135734130859 2.1638854482421874 2.987073484130859 2.1218696982421874 Q 2.972011234130859 2.0798539482421874 2.943868609130859 2.0465584482421875 Q 2.9157259841308587 2.0132629482421875 2.877673984130859 1.9942369482421876 Q 2.8396219841308588 1.9752109482421876 2.793642484130859 1.9752109482421876 Q 2.746077484130859 1.9752109482421876 2.707629109130859 1.9950296982421876 Q 2.669180734130859 2.0148484482421876 2.641830859130859 2.0485403232421877 Q 2.614480984130859 2.0822321982421874 2.599815109130859 2.1242479482421874 Q 2.585149234130859 2.1662636982421875 2.585149234130859 2.2098649482421875 M 3.3992849040527338 2.4952549482421875 Q 3.332693904052734 2.4952549482421875 3.286714404052734 2.4714724482421873 Q 3.240734904052734 2.4476899482421874 3.213781404052734 2.4076560732421877 Q 3.186827904052734 2.3676221982421874 3.174540279052734 2.3168861982421873 Q 3.162252654052734 2.2661501982421877 3.162252654052734 2.2122431982421875 L 3.162252654052734 1.9284386982421875 L 3.216952404052734 1.9284386982421875 L 3.216952404052734 2.2122431982421875 Q 3.216952404052734 2.2558444482421875 3.226069029052734 2.2978601982421876 Q 3.235185654052734 2.3398759482421876 3.255797154052734 2.3731714482421875 Q 3.276408654052734 2.4064669482421874 3.311289654052734 2.4258893232421874 Q 3.346170654052734 2.4453116982421874 3.398492154052734 2.4453116982421874 Q 3.452399154052734 2.4453116982421874 3.487676529052734 2.4250965732421874 Q 3.5229539040527342 2.4048814482421874 3.543169029052734 2.3715859482421875 Q 3.563384154052734 2.3382904482421876 3.572104404052734 2.2966710732421873 Q 3.580824654052734 2.2550516982421875 3.580824654052734 2.2122431982421875 L 3.580824654052734 1.9284386982421875 L 3.636317154052734 1.9284386982421875 L 3.636317154052734 2.2122431982421875 Q 3.636317154052734 2.2685284482421877 3.623633154052734 2.3200571982421874 Q 3.610949154052734 2.3715859482421875 3.582806529052734 2.4104306982421875 Q 3.554663904052734 2.4492754482421875 3.509477154052734 2.4722651982421873 Q 3.464290404052734 2.4952549482421875 3.3992849040527338 2.4952549482421875 M 4.105629024902344 2.0338744482421873 Q 4.093737774902343 2.0203976982421876 4.077882774902343 2.0096955732421877 Q 4.062027774902344 1.9989934482421874 4.042209024902343 1.9910659482421875 Q 4.022390274902343 1.9831384482421877 3.999796899902343 1.9783819482421876 Q 3.977203524902343 1.9736254482421876 3.9518355249023434 1.9736254482421876 Q 3.8781097749023434 1.9736254482421876 3.8436251499023433 2.0017680732421876 Q 3.809140524902343 2.0299106982421877 3.809140524902343 2.0782684482421874 Q 3.809140524902343 2.1115639482421873 3.8253918999023435 2.1305899482421875 Q 3.8416432749023435 2.1496159482421877 3.8765242749023434 2.1615071982421874 Q 3.9114052749023434 2.1733984482421875 3.9653122749023435 2.1860824482421877 Q 4.025561274902343 2.1987664482421874 4.069162524902343 2.2162069482421876 Q 4.112763774902343 2.2336474482421873 4.136546274902344 2.2633755732421874 Q 4.160328774902343 2.2931036982421875 4.160328774902343 2.3438396982421876 Q 4.160328774902343 2.3826844482421876 4.145266524902343 2.4112234482421875 Q 4.1302042749023435 2.4397624482421874 4.103250774902343 2.4587884482421876 Q 4.076297274902343 2.4778144482421873 4.039038024902343 2.4869310732421877 Q 4.001778774902343 2.4960476982421875 3.9573847749023434 2.4960476982421875 Q 3.9137835249023434 2.4960476982421875 3.873749649902343 2.4869310732421877 Q 3.8337157749023434 2.4778144482421873 3.7980420249023434 2.4599775732421874 Q 3.7623682749023435 2.4421406982421874 3.731451024902343 2.4143944482421875 L 3.7591972749023435 2.3692076982421875 Q 3.774259524902343 2.3850626982421876 3.795267399902343 2.3989358232421876 Q 3.816275274902343 2.4128089482421875 3.8420396499023433 2.4239074482421876 Q 3.8678040249023433 2.4350059482421873 3.8975321499023434 2.4409515732421876 Q 3.927260274902343 2.4468971982421874 3.9589702749023434 2.4468971982421874 Q 4.026354024902343 2.4468971982421874 4.064009649902343 2.4223219482421876 Q 4.101665274902343 2.3977466982421873 4.101665274902343 2.3493889482421877 Q 4.101665274902343 2.3145079482421873 4.082639274902343 2.2935000732421873 Q 4.063613274902344 2.2724921982421873 4.025561274902343 2.2590154482421876 Q 3.9875092749023433 2.2455386982421874 3.932016774902343 2.2328546982421873 Q 3.8733532749023434 2.2193779482421876 3.8329230249023434 2.2027301982421874 Q 3.7924927749023434 2.1860824482421877 3.7722776499023434 2.1587325732421876 Q 3.7520625249023434 2.1313826982421875 3.7520625249023434 2.0861959482421875 Q 3.7520625249023434 2.0338744482421873 3.7778268999023434 1.9978043232421876 Q 3.8035912749023435 1.9617341982421874 3.848778024902343 1.9431045732421874 Q 3.893964774902343 1.9244749482421875 3.9526282749023434 1.9244749482421875 Q 3.9898875249023433 1.9244749482421875 4.021993899902343 1.9320060732421875 Q 4.054100274902344 1.9395371982421876 4.081450149902343 1.9538066982421876 Q 4.108800024902344 1.9680761982421875 4.132582524902343 1.9894804482421875 L 4.105629024902344 2.0338744482421873 M 4.974482637817383 2.4912911982421875 L 4.974482637817383 2.0330816982421873 L 4.770745887817383 2.3890264482421877 L 4.735864887817383 2.3890264482421877 L 4.531335387817383 2.0330816982421873 L 4.531335387817383 2.4912911982421875 L 4.475842887817383 2.4912911982421875 L 4.475842887817383 1.9284386982421875 L 4.532920887817383 1.9284386982421875 L 4.752512637817383 2.3137151982421873 L 4.9736898878173825 1.9284386982421875 L 5.029975137817383 1.9284386982421875 L 5.029975137817383 2.4912911982421875 L 4.974482637817383 2.4912911982421875 M 5.40574986328125 2.4952549482421875 Q 5.34629361328125 2.4952549482421875 5.29793586328125 2.4714724482421873 Q 5.24957811328125 2.4476899482421874 5.21469711328125 2.4068633232421877 Q 5.17981611328125 2.3660366982421874 5.16079011328125 2.3149043232421875 Q 5.14176411328125 2.2637719482421876 5.14176411328125 2.2098649482421875 Q 5.14176411328125 2.1535796982421873 5.16158286328125 2.1024473232421874 Q 5.18140161328125 2.0513149482421875 5.21747173828125 2.0112810732421877 Q 5.25354186328125 1.9712471982421875 5.30189961328125 1.9478610732421875 Q 5.35025736328125 1.9244749482421875 5.40654261328125 1.9244749482421875 Q 5.46599886328125 1.9244749482421875 5.51435661328125 1.9490501982421875 Q 5.56271436328125 1.9736254482421876 5.59719898828125 2.0148484482421876 Q 5.6316836132812504 2.0560714482421876 5.65070961328125 2.1068074482421877 Q 5.66973561328125 2.1575434482421874 5.66973561328125 2.2106576982421875 Q 5.66973561328125 2.2669429482421877 5.64991686328125 2.3180753232421876 Q 5.6300981132812495 2.3692076982421875 5.59442436328125 2.4092415732421877 Q 5.55875061328125 2.4492754482421875 5.51039286328125 2.4722651982421873 Q 5.46203511328125 2.4952549482421875 5.40574986328125 2.4952549482421875 M 5.19725661328125 2.2098649482421875 Q 5.19725661328125 2.2558444482421875 5.21231886328125 2.2982565732421874 Q 5.22738111328125 2.3406686982421876 5.25512736328125 2.3735678232421873 Q 5.28287361328125 2.4064669482421874 5.32132198828125 2.4258893232421874 Q 5.35977036328125 2.4453116982421874 5.40574986328125 2.4453116982421874 Q 5.45410761328125 2.4453116982421874 5.49255598828125 2.4250965732421874 Q 5.53100436328125 2.4048814482421874 5.55835423828125 2.3711895732421873 Q 5.58570411328125 2.3374976982421876 5.59997361328125 2.2954819482421875 Q 5.61424311328125 2.2534661982421875 5.61424311328125 2.2098649482421875 Q 5.61424311328125 2.1638854482421874 5.59918086328125 2.1218696982421874 Q 5.58411861328125 2.0798539482421874 5.55597598828125 2.0465584482421875 Q 5.52783336328125 2.0132629482421875 5.48978136328125 1.9942369482421876 Q 5.45172936328125 1.9752109482421876 5.40574986328125 1.9752109482421876 Q 5.35818486328125 1.9752109482421876 5.31973648828125 1.9950296982421876 Q 5.28128811328125 2.0148484482421876 5.25393823828125 2.0485403232421877 Q 5.22658836328125 2.0822321982421874 5.21192248828125 2.1242479482421874 Q 5.19725661328125 2.1662636982421875 5.19725661328125 2.2098649482421875 M 6.280927283203125 2.4912911982421875 L 6.280927283203125 2.0330816982421873 L 6.077190533203125 2.3890264482421877 L 6.042309533203125 2.3890264482421877 L 5.837780033203125 2.0330816982421873 L 5.837780033203125 2.4912911982421875 L 5.782287533203125 2.4912911982421875 L 5.782287533203125 1.9284386982421875 L 5.839365533203125 1.9284386982421875 L 6.058957283203125 2.3137151982421873 L 6.280134533203125 1.9284386982421875 L 6.336419783203125 1.9284386982421875 L 6.336419783203125 2.4912911982421875 L 6.280927283203125 2.4912911982421875 M 6.863609758666992 2.4421406982421874 L 6.863609758666992 2.4912911982421875 L 6.4854680086669925 2.4912911982421875 L 6.4854680086669925 1.9284386982421875 L 6.856475008666992 1.9284386982421875 L 6.856475008666992 1.9775891982421876 L 6.540960508666992 1.9775891982421876 L 6.540960508666992 2.1805331982421876 L 6.816044758666992 2.1805331982421876 L 6.816044758666992 2.2273054482421877 L 6.540960508666992 2.2273054482421877 L 6.540960508666992 2.4421406982421874 L 6.863609758666992 2.4421406982421874 M 7.031679726196289 2.0307034482421873 L 7.031679726196289 2.4912911982421875 L 6.97618722619629 2.4912911982421875 L 6.97618722619629 1.9284386982421875 L 7.022166726196289 1.9284386982421875 L 7.391588226196289 2.3977466982421873 L 7.391588226196289 1.9292314482421875 L 7.4470807261962895 1.9292314482421875 L 7.4470807261962895 2.4912911982421875 L 7.395551976196289 2.4912911982421875 L 7.031679726196289 2.0307034482421873 M 7.995642049438477 1.9775891982421876 L 7.795076299438477 1.9775891982421876 L 7.795076299438477 2.4912911982421875 L 7.739583799438476 2.4912911982421875 L 7.739583799438476 1.9775891982421876 L 7.539018049438476 1.9775891982421876 L 7.539018049438476 1.9284386982421875 L 7.995642049438477 1.9284386982421875 L 7.995642049438477 1.9775891982421876 M 8.416580686889649 2.0338744482421873 Q 8.404689436889647 2.0203976982421876 8.388834436889647 2.0096955732421877 Q 8.372979436889649 1.9989934482421874 8.353160686889648 1.9910659482421875 Q 8.333341936889648 1.9831384482421877 8.310748561889648 1.9783819482421876 Q 8.288155186889648 1.9736254482421876 8.262787186889648 1.9736254482421876 Q 8.189061436889649 1.9736254482421876 8.154576811889648 2.0017680732421876 Q 8.120092186889648 2.0299106982421877 8.120092186889648 2.0782684482421874 Q 8.120092186889648 2.1115639482421873 8.136343561889648 2.1305899482421875 Q 8.152594936889647 2.1496159482421877 8.187475936889648 2.1615071982421874 Q 8.222356936889648 2.1733984482421875 8.276263936889649 2.1860824482421877 Q 8.336512936889648 2.1987664482421874 8.380114186889648 2.2162069482421876 Q 8.423715436889648 2.2336474482421873 8.447497936889649 2.2633755732421874 Q 8.471280436889648 2.2931036982421875 8.471280436889648 2.3438396982421876 Q 8.471280436889648 2.3826844482421876 8.456218186889648 2.4112234482421875 Q 8.441155936889649 2.4397624482421874 8.414202436889648 2.4587884482421876 Q 8.387248936889648 2.4778144482421873 8.349989686889648 2.4869310732421877 Q 8.312730436889648 2.4960476982421875 8.268336436889648 2.4960476982421875 Q 8.224735186889648 2.4960476982421875 8.184701311889649 2.4869310732421877 Q 8.144667436889648 2.4778144482421873 8.108993686889647 2.4599775732421874 Q 8.073319936889648 2.4421406982421874 8.042402686889648 2.4143944482421875 L 8.070148936889648 2.3692076982421875 Q 8.085211186889648 2.3850626982421876 8.106219061889648 2.3989358232421876 Q 8.127226936889649 2.4128089482421875 8.152991311889648 2.4239074482421876 Q 8.178755686889648 2.4350059482421873 8.208483811889648 2.4409515732421876 Q 8.238211936889648 2.4468971982421874 8.269921936889649 2.4468971982421874 Q 8.337305686889648 2.4468971982421874 8.374961311889647 2.4223219482421876 Q 8.412616936889648 2.3977466982421873 8.412616936889648 2.3493889482421877 Q 8.412616936889648 2.3145079482421873 8.393590936889648 2.2935000732421873 Q 8.374564936889648 2.2724921982421873 8.336512936889648 2.2590154482421876 Q 8.298460936889647 2.2455386982421874 8.242968436889647 2.2328546982421873 Q 8.184304936889648 2.2193779482421876 8.143874686889648 2.2027301982421874 Q 8.103444436889648 2.1860824482421877 8.083229311889648 2.1587325732421876 Q 8.063014186889648 2.1313826982421875 8.063014186889648 2.0861959482421875 Q 8.063014186889648 2.0338744482421873 8.088778561889647 1.9978043232421876 Q 8.114542936889649 1.9617341982421874 8.159729686889648 1.9431045732421874 Q 8.204916436889649 1.9244749482421875 8.263579936889649 1.9244749482421875 Q 8.300839186889649 1.9244749482421875 8.332945561889648 1.9320060732421875 Q 8.365051936889648 1.9395371982421876 8.392401811889648 1.9538066982421876 Q 8.419751686889647 1.9680761982421875 8.443534186889648 1.9894804482421875 L 8.416580686889649 2.0338744482421873 M 8.574333678955078 2.5555039482421873 L 8.587810428955079 2.4889129482421875 L 8.569577178955079 2.4889129482421875 L 8.569577178955079 2.4136016982421875 L 8.621898678955079 2.4136016982421875 L 8.621898678955079 2.4889129482421875 L 8.602079928955078 2.5555039482421873 L 8.574333678955078 2.5555039482421873 M 8.973071445556641 2.4912911982421875 L 8.973071445556641 1.9284386982421875 L 9.164124195556642 1.9284386982421875 Q 9.253704945556642 1.9284386982421875 9.313557570556641 1.9660943232421875 Q 9.373410195556643 2.0037499482421874 9.403534695556642 2.0675663232421875 Q 9.433659195556642 2.1313826982421875 9.433659195556642 2.2090721982421875 Q 9.433659195556642 2.2946891982421875 9.400760070556641 2.3581091982421873 Q 9.367860945556641 2.4215291982421876 9.307215570556641 2.4564101982421875 Q 9.246570195556641 2.4912911982421875 9.164124195556642 2.4912911982421875 L 8.973071445556641 2.4912911982421875 M 9.378166695556642 2.2090721982421875 Q 9.378166695556642 2.1416884482421876 9.353195070556643 2.0893669482421875 Q 9.328223445556642 2.0370454482421874 9.280658445556641 2.0073173232421877 Q 9.233093445556642 1.9775891982421876 9.164124195556642 1.9775891982421876 L 9.028563945556641 1.9775891982421876 L 9.028563945556641 2.4421406982421874 L 9.164124195556642 2.4421406982421874 Q 9.233886195556641 2.4421406982421874 9.281451195556642 2.4112234482421875 Q 9.329016195556642 2.3803061982421876 9.353591445556642 2.3275883232421877 Q 9.378166695556642 2.2748704482421873 9.378166695556642 2.2090721982421875 M 9.925978235229493 2.4421406982421874 L 9.925978235229493 2.4912911982421875 L 9.547836485229492 2.4912911982421875 L 9.547836485229492 1.9284386982421875 L 9.918843485229493 1.9284386982421875 L 9.918843485229493 1.9775891982421876 L 9.603328985229492 1.9775891982421876 L 9.603328985229492 2.1805331982421876 L 9.878413235229493 2.1805331982421876 L 9.878413235229493 2.2273054482421877 L 9.603328985229492 2.2273054482421877 L 9.603328985229492 2.4421406982421874 L 9.925978235229493 2.4421406982421874 M 10.038555702758789 2.4912911982421875 L 10.038555702758789 1.9284386982421875 L 10.094048202758788 1.9284386982421875 L 10.094048202758788 2.4421406982421874 L 10.41907570275879 2.4421406982421874 L 10.41907570275879 2.4912911982421875 L 10.038555702758789 2.4912911982421875 M 10.508662646118164 2.4912911982421875 L 10.508662646118164 1.9284386982421875 L 10.564155146118164 1.9284386982421875 L 10.564155146118164 2.4912911982421875 L 10.508662646118164 2.4912911982421875 M 10.710802670654298 1.9284386982421875 L 10.912161170654297 2.4223219482421876 L 11.112726920654298 1.9284386982421875 L 11.170597670654297 1.9284386982421875 L 10.937529170654297 2.4912911982421875 L 10.886793170654297 2.4912911982421875 L 10.652931920654298 1.9284386982421875 L 10.710802670654298 1.9284386982421875 M 11.637540194458008 2.4421406982421874 L 11.637540194458008 2.4912911982421875 L 11.259398444458007 2.4912911982421875 L 11.259398444458007 1.9284386982421875 L 11.630405444458008 1.9284386982421875 L 11.630405444458008 1.9775891982421876 L 11.314890944458007 1.9775891982421876 L 11.314890944458007 2.1805331982421876 L 11.589975194458008 2.1805331982421876 L 11.589975194458008 2.2273054482421877 L 11.314890944458007 2.2273054482421877 L 11.314890944458007 2.4421406982421874 L 11.637540194458008 2.4421406982421874 M 11.750117661987304 2.4912911982421875 L 11.750117661987304 1.9284386982421875 L 11.987942661987304 1.9284386982421875 Q 12.024409161987304 1.9284386982421875 12.054533661987303 1.9435009482421877 Q 12.084658161987305 1.9585631982421874 12.107251536987304 1.9843275732421874 Q 12.129844911987304 2.0100919482421875 12.142132536987305 2.0414055732421876 Q 12.154420161987304 2.0727191982421873 12.154420161987304 2.1052219482421877 Q 12.154420161987304 2.1456521982421877 12.138961536987305 2.1813259482421876 Q 12.123502911987304 2.2169996982421876 12.095360286987304 2.2415749482421874 Q 12.067217661987304 2.2661501982421877 12.029165661987305 2.2740776982421873 L 12.167104161987304 2.4912911982421875 L 12.104476911987303 2.4912911982421875 L 11.972087661987304 2.2835906982421874 L 11.805610161987303 2.2835906982421874 L 11.805610161987303 2.4912911982421875 L 11.750117661987304 2.4912911982421875 M 11.805610161987303 2.2344401982421873 L 11.989528161987304 2.2344401982421873 Q 12.022823661987305 2.2344401982421873 12.047398911987305 2.2162069482421876 Q 12.071974161987304 2.1979736982421874 12.085450911987303 2.1682455732421877 Q 12.098927661987304 2.1385174482421876 12.098927661987304 2.1052219482421877 Q 12.098927661987304 2.0711336982421873 12.083469036987305 2.0421983232421876 Q 12.068010411987304 2.0132629482421875 12.042246036987304 1.9954260732421876 Q 12.016481661987305 1.9775891982421876 11.984771661987304 1.9775891982421876 L 11.805610161987303 1.9775891982421876 L 11.805610161987303 2.2344401982421873 M 12.653864661621094 2.4421406982421874 L 12.653864661621094 2.4912911982421875 L 12.275722911621093 2.4912911982421875 L 12.275722911621093 1.9284386982421875 L 12.646729911621094 1.9284386982421875 L 12.646729911621094 1.9775891982421876 L 12.331215411621093 1.9775891982421876 L 12.331215411621093 2.1805331982421876 L 12.606299661621094 2.1805331982421876 L 12.606299661621094 2.2273054482421877 L 12.331215411621093 2.2273054482421877 L 12.331215411621093 2.4421406982421874 L 12.653864661621094 2.4421406982421874 M 12.76644212915039 2.4912911982421875 L 12.76644212915039 1.9284386982421875 L 12.95749487915039 1.9284386982421875 Q 13.04707562915039 1.9284386982421875 13.10692825415039 1.9660943232421875 Q 13.16678087915039 2.0037499482421874 13.19690537915039 2.0675663232421875 Q 13.22702987915039 2.1313826982421875 13.22702987915039 2.2090721982421875 Q 13.22702987915039 2.2946891982421875 13.19413075415039 2.3581091982421873 Q 13.16123162915039 2.4215291982421876 13.10058625415039 2.4564101982421875 Q 13.03994087915039 2.4912911982421875 12.95749487915039 2.4912911982421875 L 12.76644212915039 2.4912911982421875 M 13.17153737915039 2.2090721982421875 Q 13.17153737915039 2.1416884482421876 13.14656575415039 2.0893669482421875 Q 13.12159412915039 2.0370454482421874 13.07402912915039 2.0073173232421877 Q 13.02646412915039 1.9775891982421876 12.95749487915039 1.9775891982421876 L 12.82193462915039 1.9775891982421876 L 12.82193462915039 2.4421406982421874 L 12.95749487915039 2.4421406982421874 Q 13.02725687915039 2.4421406982421874 13.07482187915039 2.4112234482421875 Q 13.12238687915039 2.3803061982421876 13.14696212915039 2.3275883232421877 Q 13.17153737915039 2.2748704482421873 13.17153737915039 2.2090721982421875 M 13.927852620117187 1.9775891982421876 L 13.727286870117187 1.9775891982421876 L 13.727286870117187 2.4912911982421875 L 13.671794370117187 2.4912911982421875 L 13.671794370117187 1.9775891982421876 L 13.471228620117188 1.9775891982421876 L 13.471228620117188 1.9284386982421875 L 13.927852620117187 1.9284386982421875 L 13.927852620117187 1.9775891982421876 M 14.226688403320312 2.4952549482421875 Q 14.167232153320313 2.4952549482421875 14.118874403320312 2.4714724482421873 Q 14.070516653320313 2.4476899482421874 14.035635653320313 2.4068633232421877 Q 14.000754653320312 2.3660366982421874 13.981728653320312 2.3149043232421875 Q 13.962702653320312 2.2637719482421876 13.962702653320312 2.2098649482421875 Q 13.962702653320312 2.1535796982421873 13.982521403320312 2.1024473232421874 Q 14.002340153320313 2.0513149482421875 14.038410278320312 2.0112810732421877 Q 14.074480403320312 1.9712471982421875 14.122838153320313 1.9478610732421875 Q 14.171195903320312 1.9244749482421875 14.227481153320312 1.9244749482421875 Q 14.286937403320312 1.9244749482421875 14.335295153320311 1.9490501982421875 Q 14.383652903320312 1.9736254482421876 14.418137528320312 2.0148484482421876 Q 14.452622153320313 2.0560714482421876 14.471648153320313 2.1068074482421877 Q 14.490674153320313 2.1575434482421874 14.490674153320313 2.2106576982421875 Q 14.490674153320313 2.2669429482421877 14.470855403320313 2.3180753232421876 Q 14.451036653320312 2.3692076982421875 14.415362903320313 2.4092415732421877 Q 14.379689153320312 2.4492754482421875 14.331331403320313 2.4722651982421873 Q 14.282973653320312 2.4952549482421875 14.226688403320312 2.4952549482421875 M 14.018195153320312 2.2098649482421875 Q 14.018195153320312 2.2558444482421875 14.033257403320313 2.2982565732421874 Q 14.048319653320313 2.3406686982421876 14.076065903320313 2.3735678232421873 Q 14.103812153320312 2.4064669482421874 14.142260528320312 2.4258893232421874 Q 14.180708903320312 2.4453116982421874 14.226688403320312 2.4453116982421874 Q 14.275046153320313 2.4453116982421874 14.313494528320312 2.4250965732421874 Q 14.351942903320312 2.4048814482421874 14.379292778320313 2.3711895732421873 Q 14.406642653320313 2.3374976982421876 14.420912153320312 2.2954819482421875 Q 14.435181653320312 2.2534661982421875 14.435181653320312 2.2098649482421875 Q 14.435181653320312 2.1638854482421874 14.420119403320312 2.1218696982421874 Q 14.405057153320312 2.0798539482421874 14.376914528320313 2.0465584482421875 Q 14.348771903320312 2.0132629482421875 14.310719903320312 1.9942369482421876 Q 14.272667903320313 1.9752109482421876 14.226688403320312 1.9752109482421876 Q 14.179123403320313 1.9752109482421876 14.140675028320313 1.9950296982421876 Q 14.102226653320312 2.0148484482421876 14.074876778320313 2.0485403232421877 Q 14.047526903320312 2.0822321982421874 14.032861028320312 2.1242479482421874 Q 14.018195153320312 2.1662636982421875 14.018195153320312 2.2098649482421875 M 14.788754733764648 1.9284386982421875 L 14.972672733764648 2.2312691982421873 L 15.15817623376465 1.9284386982421875 L 15.218425233764648 1.9284386982421875 L 15.000418983764648 2.2820051982421874 L 15.000418983764648 2.4912911982421875 L 14.944926483764648 2.4912911982421875 L 14.944926483764648 2.2804196982421874 L 14.727712983764649 1.9284386982421875 L 14.788754733764648 1.9284386982421875 M 15.499061830444335 2.4952549482421875 Q 15.439605580444336 2.4952549482421875 15.391247830444335 2.4714724482421873 Q 15.342890080444336 2.4476899482421874 15.308009080444336 2.4068633232421877 Q 15.273128080444335 2.3660366982421874 15.254102080444335 2.3149043232421875 Q 15.235076080444335 2.2637719482421876 15.235076080444335 2.2098649482421875 Q 15.235076080444335 2.1535796982421873 15.254894830444336 2.1024473232421874 Q 15.274713580444336 2.0513149482421875 15.310783705444335 2.0112810732421877 Q 15.346853830444335 1.9712471982421875 15.395211580444336 1.9478610732421875 Q 15.443569330444335 1.9244749482421875 15.499854580444335 1.9244749482421875 Q 15.559310830444335 1.9244749482421875 15.607668580444335 1.9490501982421875 Q 15.656026330444336 1.9736254482421876 15.690510955444335 2.0148484482421876 Q 15.724995580444336 2.0560714482421876 15.744021580444336 2.1068074482421877 Q 15.763047580444336 2.1575434482421874 15.763047580444336 2.2106576982421875 Q 15.763047580444336 2.2669429482421877 15.743228830444336 2.3180753232421876 Q 15.723410080444335 2.3692076982421875 15.687736330444336 2.4092415732421877 Q 15.652062580444335 2.4492754482421875 15.603704830444336 2.4722651982421873 Q 15.555347080444335 2.4952549482421875 15.499061830444335 2.4952549482421875 M 15.290568580444335 2.2098649482421875 Q 15.290568580444335 2.2558444482421875 15.305630830444336 2.2982565732421874 Q 15.320693080444336 2.3406686982421876 15.348439330444336 2.3735678232421873 Q 15.376185580444336 2.4064669482421874 15.414633955444335 2.4258893232421874 Q 15.453082330444335 2.4453116982421874 15.499061830444335 2.4453116982421874 Q 15.547419580444336 2.4453116982421874 15.585867955444336 2.4250965732421874 Q 15.624316330444335 2.4048814482421874 15.651666205444336 2.3711895732421873 Q 15.679016080444336 2.3374976982421876 15.693285580444336 2.2954819482421875 Q 15.707555080444335 2.2534661982421875 15.707555080444335 2.2098649482421875 Q 15.707555080444335 2.1638854482421874 15.692492830444335 2.1218696982421874 Q 15.677430580444335 2.0798539482421874 15.649287955444336 2.0465584482421875 Q 15.621145330444335 2.0132629482421875 15.583093330444335 1.9942369482421876 Q 15.545041330444336 1.9752109482421876 15.499061830444335 1.9752109482421876 Q 15.451496830444336 1.9752109482421876 15.413048455444336 1.9950296982421876 Q 15.374600080444335 2.0148484482421876 15.347250205444336 2.0485403232421877 Q 15.319900330444336 2.0822321982421874 15.305234455444335 2.1242479482421874 Q 15.290568580444335 2.1662636982421875 15.290568580444335 2.2098649482421875 M 16.10470425036621 2.4952549482421875 Q 16.038113250366212 2.4952549482421875 15.99213375036621 2.4714724482421873 Q 15.946154250366211 2.4476899482421874 15.91920075036621 2.4076560732421877 Q 15.89224725036621 2.3676221982421874 15.87995962536621 2.3168861982421873 Q 15.86767200036621 2.2661501982421877 15.86767200036621 2.2122431982421875 L 15.86767200036621 1.9284386982421875 L 15.92237175036621 1.9284386982421875 L 15.92237175036621 2.2122431982421875 Q 15.92237175036621 2.2558444482421875 15.93148837536621 2.2978601982421876 Q 15.94060500036621 2.3398759482421876 15.961216500366211 2.3731714482421875 Q 15.98182800036621 2.4064669482421874 16.01670900036621 2.4258893232421874 Q 16.05159000036621 2.4453116982421874 16.10391150036621 2.4453116982421874 Q 16.15781850036621 2.4453116982421874 16.19309587536621 2.4250965732421874 Q 16.22837325036621 2.4048814482421874 16.24858837536621 2.3715859482421875 Q 16.26880350036621 2.3382904482421876 16.27752375036621 2.2966710732421873 Q 16.28624400036621 2.2550516982421875 16.28624400036621 2.2122431982421875 L 16.28624400036621 1.9284386982421875 L 16.34173650036621 1.9284386982421875 L 16.34173650036621 2.2122431982421875 Q 16.34173650036621 2.2685284482421877 16.32905250036621 2.3200571982421874 Q 16.31636850036621 2.3715859482421875 16.288225875366212 2.4104306982421875 Q 16.26008325036621 2.4492754482421875 16.214896500366212 2.4722651982421873 Q 16.16970975036621 2.4952549482421875 16.10470425036621 2.4952549482421875 M 16.48205712121582 2.4912911982421875 L 16.48205712121582 1.9284386982421875 L 16.71988212121582 1.9284386982421875 Q 16.75634862121582 1.9284386982421875 16.78647312121582 1.9435009482421877 Q 16.81659762121582 1.9585631982421874 16.83919099621582 1.9843275732421874 Q 16.861784371215823 2.0100919482421875 16.87407199621582 2.0414055732421876 Q 16.88635962121582 2.0727191982421873 16.88635962121582 2.1052219482421877 Q 16.88635962121582 2.1456521982421877 16.87090099621582 2.1813259482421876 Q 16.855442371215823 2.2169996982421876 16.82729974621582 2.2415749482421874 Q 16.79915712121582 2.2661501982421877 16.76110512121582 2.2740776982421873 L 16.89904362121582 2.4912911982421875 L 16.836416371215822 2.4912911982421875 L 16.70402712121582 2.2835906982421874 L 16.53754962121582 2.2835906982421874 L 16.53754962121582 2.4912911982421875 L 16.48205712121582 2.4912911982421875 M 16.53754962121582 2.2344401982421873 L 16.721467621215822 2.2344401982421873 Q 16.75476312121582 2.2344401982421873 16.77933837121582 2.2162069482421876 Q 16.80391362121582 2.1979736982421874 16.817390371215822 2.1682455732421877 Q 16.83086712121582 2.1385174482421876 16.83086712121582 2.1052219482421877 Q 16.83086712121582 2.0711336982421873 16.81540849621582 2.0421983232421876 Q 16.799949871215823 2.0132629482421875 16.77418549621582 1.9954260732421876 Q 16.74842112121582 1.9775891982421876 16.71671112121582 1.9775891982421876 L 16.53754962121582 1.9775891982421876 L 16.53754962121582 2.2344401982421873 M 17.217744991699217 2.4912911982421875 L 17.217744991699217 1.9284386982421875 L 17.408797741699217 1.9284386982421875 Q 17.498378491699217 1.9284386982421875 17.55823111669922 1.9660943232421875 Q 17.618083741699216 2.0037499482421874 17.648208241699216 2.0675663232421875 Q 17.67833274169922 2.1313826982421875 17.67833274169922 2.2090721982421875 Q 17.67833274169922 2.2946891982421875 17.64543361669922 2.3581091982421873 Q 17.61253449169922 2.4215291982421876 17.55188911669922 2.4564101982421875 Q 17.49124374169922 2.4912911982421875 17.408797741699217 2.4912911982421875 L 17.217744991699217 2.4912911982421875 M 17.62284024169922 2.2090721982421875 Q 17.62284024169922 2.1416884482421876 17.597868616699216 2.0893669482421875 Q 17.572896991699217 2.0370454482421874 17.52533199169922 2.0073173232421877 Q 17.477766991699216 1.9775891982421876 17.408797741699217 1.9775891982421876 L 17.273237491699216 1.9775891982421876 L 17.273237491699216 2.4421406982421874 L 17.408797741699217 2.4421406982421874 Q 17.478559741699218 2.4421406982421874 17.526124741699217 2.4112234482421875 Q 17.573689741699216 2.3803061982421876 17.598264991699217 2.3275883232421877 Q 17.62284024169922 2.2748704482421873 17.62284024169922 2.2090721982421875 M 18.01923653137207 2.4952549482421875 Q 17.95978028137207 2.4952549482421875 17.911422531372068 2.4714724482421873 Q 17.863064781372067 2.4476899482421874 17.82818378137207 2.4068633232421877 Q 17.79330278137207 2.3660366982421874 17.77427678137207 2.3149043232421875 Q 17.75525078137207 2.2637719482421876 17.75525078137207 2.2098649482421875 Q 17.75525078137207 2.1535796982421873 17.77506953137207 2.1024473232421874 Q 17.794888281372067 2.0513149482421875 17.83095840637207 2.0112810732421877 Q 17.867028531372068 1.9712471982421875 17.91538628137207 1.9478610732421875 Q 17.96374403137207 1.9244749482421875 18.020029281372068 1.9244749482421875 Q 18.079485531372068 1.9244749482421875 18.12784328137207 1.9490501982421875 Q 18.176201031372067 1.9736254482421876 18.210685656372068 2.0148484482421876 Q 18.24517028137207 2.0560714482421876 18.26419628137207 2.1068074482421877 Q 18.28322228137207 2.1575434482421874 18.28322228137207 2.2106576982421875 Q 18.28322228137207 2.2669429482421877 18.263403531372067 2.3180753232421876 Q 18.243584781372068 2.3692076982421875 18.207911031372067 2.4092415732421877 Q 18.17223728137207 2.4492754482421875 18.12387953137207 2.4722651982421873 Q 18.075521781372068 2.4952549482421875 18.01923653137207 2.4952549482421875 M 17.81074328137207 2.2098649482421875 Q 17.81074328137207 2.2558444482421875 17.82580553137207 2.2982565732421874 Q 17.84086778137207 2.3406686982421876 17.86861403137207 2.3735678232421873 Q 17.89636028137207 2.4064669482421874 17.93480865637207 2.4258893232421874 Q 17.973257031372068 2.4453116982421874 18.01923653137207 2.4453116982421874 Q 18.067594281372067 2.4453116982421874 18.106042656372068 2.4250965732421874 Q 18.14449103137207 2.4048814482421874 18.17184090637207 2.3711895732421873 Q 18.199190781372067 2.3374976982421876 18.21346028137207 2.2954819482421875 Q 18.22772978137207 2.2534661982421875 18.22772978137207 2.2098649482421875 Q 18.22772978137207 2.1638854482421874 18.21266753137207 2.1218696982421874 Q 18.19760528137207 2.0798539482421874 18.16946265637207 2.0465584482421875 Q 18.141320031372068 2.0132629482421875 18.103268031372068 1.9942369482421876 Q 18.065216031372067 1.9752109482421876 18.01923653137207 1.9752109482421876 Q 17.971671531372067 1.9752109482421876 17.93322315637207 1.9950296982421876 Q 17.894774781372067 2.0148484482421876 17.86742490637207 2.0485403232421877 Q 17.84007503137207 2.0822321982421874 17.825409156372068 2.1242479482421874 Q 17.81074328137207 2.1662636982421875 17.81074328137207 2.2098649482421875 M 18.622500701293944 2.4952549482421875 Q 18.563044451293944 2.4952549482421875 18.514686701293943 2.4714724482421873 Q 18.466328951293942 2.4476899482421874 18.431447951293944 2.4068633232421877 Q 18.396566951293945 2.3660366982421874 18.377540951293945 2.3149043232421875 Q 18.358514951293945 2.2637719482421876 18.358514951293945 2.2098649482421875 Q 18.358514951293945 2.1535796982421873 18.378333701293943 2.1024473232421874 Q 18.398152451293942 2.0513149482421875 18.434222576293944 2.0112810732421877 Q 18.470292701293943 1.9712471982421875 18.518650451293944 1.9478610732421875 Q 18.567008201293945 1.9244749482421875 18.623293451293943 1.9244749482421875 Q 18.682749701293943 1.9244749482421875 18.731107451293944 1.9490501982421875 Q 18.77946520129394 1.9736254482421876 18.813949826293943 2.0148484482421876 Q 18.848434451293944 2.0560714482421876 18.867460451293944 2.1068074482421877 Q 18.886486451293944 2.1575434482421874 18.886486451293944 2.2106576982421875 Q 18.886486451293944 2.2669429482421877 18.86666770129394 2.3180753232421876 Q 18.846848951293943 2.3692076982421875 18.811175201293942 2.4092415732421877 Q 18.775501451293945 2.4492754482421875 18.727143701293944 2.4722651982421873 Q 18.678785951293943 2.4952549482421875 18.622500701293944 2.4952549482421875 M 18.414007451293944 2.2098649482421875 Q 18.414007451293944 2.2558444482421875 18.429069701293944 2.2982565732421874 Q 18.444131951293944 2.3406686982421876 18.471878201293944 2.3735678232421873 Q 18.499624451293943 2.4064669482421874 18.538072826293945 2.4258893232421874 Q 18.576521201293943 2.4453116982421874 18.622500701293944 2.4453116982421874 Q 18.67085845129394 2.4453116982421874 18.709306826293943 2.4250965732421874 Q 18.747755201293945 2.4048814482421874 18.775105076293944 2.3711895732421873 Q 18.802454951293942 2.3374976982421876 18.816724451293943 2.2954819482421875 Q 18.830993951293944 2.2534661982421875 18.830993951293944 2.2098649482421875 Q 18.830993951293944 2.1638854482421874 18.815931701293945 2.1218696982421874 Q 18.800869451293945 2.0798539482421874 18.772726826293944 2.0465584482421875 Q 18.744584201293943 2.0132629482421875 18.706532201293943 1.9942369482421876 Q 18.668480201293942 1.9752109482421876 18.622500701293944 1.9752109482421876 Q 18.574935701293942 1.9752109482421876 18.536487326293944 1.9950296982421876 Q 18.498038951293942 2.0148484482421876 18.470689076293944 2.0485403232421877 Q 18.443339201293945 2.0822321982421874 18.428673326293943 2.1242479482421874 Q 18.414007451293944 2.1662636982421875 18.414007451293944 2.2098649482421875 M 18.999038371215818 2.4912911982421875 L 18.999038371215818 1.9284386982421875 L 19.23686337121582 1.9284386982421875 Q 19.273329871215818 1.9284386982421875 19.303454371215818 1.9435009482421877 Q 19.333578871215817 1.9585631982421874 19.356172246215817 1.9843275732421874 Q 19.37876562121582 2.0100919482421875 19.39105324621582 2.0414055732421876 Q 19.403340871215818 2.0727191982421873 19.403340871215818 2.1052219482421877 Q 19.403340871215818 2.1456521982421877 19.387882246215817 2.1813259482421876 Q 19.37242362121582 2.2169996982421876 19.34428099621582 2.2415749482421874 Q 19.316138371215818 2.2661501982421877 19.278086371215817 2.2740776982421873 L 19.416024871215818 2.4912911982421875 L 19.35339762121582 2.4912911982421875 L 19.221008371215817 2.2835906982421874 L 19.054530871215817 2.2835906982421874 L 19.054530871215817 2.4912911982421875 L 18.999038371215818 2.4912911982421875 M 19.054530871215817 2.2344401982421873 L 19.23844887121582 2.2344401982421873 Q 19.271744371215817 2.2344401982421873 19.29631962121582 2.2162069482421876 Q 19.320894871215817 2.1979736982421874 19.33437162121582 2.1682455732421877 Q 19.347848371215818 2.1385174482421876 19.347848371215818 2.1052219482421877 Q 19.347848371215818 2.0711336982421873 19.332389746215817 2.0421983232421876 Q 19.31693112121582 2.0132629482421875 19.29116674621582 1.9954260732421876 Q 19.265402371215817 1.9775891982421876 19.233692371215817 1.9775891982421876 L 19.054530871215817 1.9775891982421876 L 19.054530871215817 2.2344401982421873 M 19.853634870849607 2.0338744482421873 Q 19.841743620849606 2.0203976982421876 19.825888620849607 2.0096955732421877 Q 19.810033620849605 1.9989934482421874 19.790214870849606 1.9910659482421875 Q 19.770396120849608 1.9831384482421877 19.747802745849608 1.9783819482421876 Q 19.725209370849605 1.9736254482421876 19.699841370849605 1.9736254482421876 Q 19.626115620849607 1.9736254482421876 19.591630995849606 2.0017680732421876 Q 19.557146370849605 2.0299106982421877 19.557146370849605 2.0782684482421874 Q 19.557146370849605 2.1115639482421873 19.573397745849608 2.1305899482421875 Q 19.589649120849607 2.1496159482421877 19.624530120849606 2.1615071982421874 Q 19.659411120849605 2.1733984482421875 19.713318120849607 2.1860824482421877 Q 19.773567120849606 2.1987664482421874 19.817168370849608 2.2162069482421876 Q 19.860769620849606 2.2336474482421873 19.884552120849605 2.2633755732421874 Q 19.908334620849605 2.2931036982421875 19.908334620849605 2.3438396982421876 Q 19.908334620849605 2.3826844482421876 19.893272370849605 2.4112234482421875 Q 19.878210120849605 2.4397624482421874 19.851256620849608 2.4587884482421876 Q 19.824303120849606 2.4778144482421873 19.787043870849605 2.4869310732421877 Q 19.749784620849606 2.4960476982421875 19.705390620849606 2.4960476982421875 Q 19.661789370849608 2.4960476982421875 19.621755495849605 2.4869310732421877 Q 19.581721620849606 2.4778144482421873 19.546047870849605 2.4599775732421874 Q 19.510374120849605 2.4421406982421874 19.479456870849607 2.4143944482421875 L 19.507203120849606 2.3692076982421875 Q 19.522265370849606 2.3850626982421876 19.543273245849605 2.3989358232421876 Q 19.564281120849607 2.4128089482421875 19.590045495849605 2.4239074482421876 Q 19.615809870849606 2.4350059482421873 19.645537995849605 2.4409515732421876 Q 19.675266120849606 2.4468971982421874 19.706976120849607 2.4468971982421874 Q 19.774359870849608 2.4468971982421874 19.812015495849607 2.4223219482421876 Q 19.849671120849607 2.3977466982421873 19.849671120849607 2.3493889482421877 Q 19.849671120849607 2.3145079482421873 19.830645120849606 2.2935000732421873 Q 19.811619120849606 2.2724921982421873 19.773567120849606 2.2590154482421876 Q 19.735515120849605 2.2455386982421874 19.680022620849606 2.2328546982421873 Q 19.621359120849608 2.2193779482421876 19.580928870849608 2.2027301982421874 Q 19.540498620849608 2.1860824482421877 19.520283495849608 2.1587325732421876 Q 19.500068370849608 2.1313826982421875 19.500068370849608 2.0861959482421875 Q 19.500068370849608 2.0338744482421873 19.525832745849605 1.9978043232421876 Q 19.551597120849607 1.9617341982421874 19.596783870849606 1.9431045732421874 Q 19.641970620849605 1.9244749482421875 19.700634120849607 1.9244749482421875 Q 19.737893370849605 1.9244749482421875 19.769999745849606 1.9320060732421875 Q 19.802106120849608 1.9395371982421876 19.829455995849607 1.9538066982421876 Q 19.856805870849605 1.9680761982421875 19.880588370849605 1.9894804482421875 L 19.853634870849607 2.0338744482421873 M 20.41253794299316 1.9775891982421876 L 20.211972192993162 1.9775891982421876 L 20.211972192993162 2.4912911982421875 L 20.156479692993162 2.4912911982421875 L 20.156479692993162 1.9775891982421876 L 19.95591394299316 1.9775891982421876 L 19.95591394299316 1.9284386982421875 L 20.41253794299316 1.9284386982421875 L 20.41253794299316 1.9775891982421876 M 20.882627080444333 2.4421406982421874 L 20.882627080444333 2.4912911982421875 L 20.504485330444332 2.4912911982421875 L 20.504485330444332 1.9284386982421875 L 20.87549233044433 1.9284386982421875 L 20.87549233044433 1.9775891982421876 L 20.559977830444332 1.9775891982421876 L 20.559977830444332 2.1805331982421876 L 20.83506208044433 2.1805331982421876 L 20.83506208044433 2.2273054482421877 L 20.559977830444332 2.2273054482421877 L 20.559977830444332 2.4421406982421874 L 20.882627080444333 2.4421406982421874 M 20.99520454797363 2.4912911982421875 L 20.99520454797363 1.9284386982421875 L 21.22827304797363 1.9284386982421875 Q 21.26473954797363 1.9284386982421875 21.29526042297363 1.9435009482421877 Q 21.325781297973627 1.9585631982421874 21.34797829797363 1.9843275732421874 Q 21.370175297973628 2.0100919482421875 21.382859297973628 2.0414055732421876 Q 21.395543297973628 2.0727191982421873 21.395543297973628 2.1052219482421877 Q 21.395543297973628 2.1512014482421877 21.375328172973628 2.1920280732421875 Q 21.355113047973628 2.2328546982421873 21.31864654797363 2.2582226982421876 Q 21.28218004797363 2.2835906982421874 21.23302954797363 2.2835906982421874 L 21.050697047973628 2.2835906982421874 L 21.050697047973628 2.4912911982421875 L 20.99520454797363 2.4912911982421875 M 21.050697047973628 2.2344401982421873 L 21.23065129797363 2.2344401982421873 Q 21.263946797973627 2.2344401982421873 21.28852204797363 2.2162069482421876 Q 21.31309729797363 2.1979736982421874 21.32657404797363 2.1686419482421875 Q 21.34005079797363 2.1393101982421876 21.34005079797363 2.1052219482421877 Q 21.34005079797363 2.0703409482421877 21.32419579797363 2.0410091982421874 Q 21.308340797973628 2.0116774482421875 21.28257642297363 1.9946333232421876 Q 21.25681204797363 1.9775891982421876 21.22589479797363 1.9775891982421876 L 21.050697047973628 1.9775891982421876 L 21.050697047973628 2.2344401982421873" fill="#262626" fill-rule="nonzero"></path></g><g clip-path="url(#SvgjsClipPath1002)"><g clip-path="url(#a6c84852f-0285-4cf2-819f-a2c77d4004a5c4015a5e-733f-4d91-b4b8-bec18493c553)"><path d=" M -3.9597754126247775 0.6453770636689588 C -3.9597144443501087 0.6291596747270697 -3.9661298025908094 0.6135889102674077 -3.9775973093211983 0.6021214035370192 C -3.9890648160515867 0.5906538968066307 -4.004635580511248 0.58423853856593 -4.020852969453138 0.5842995068405991 L -5.198907752465928 0.5842995068405991 C -5.215125141407817 0.5842385385659302 -5.230695905867479 0.5906538968066309 -5.2421634125978676 0.6021214035370195 C -5.2536309193282555 0.613588910267408 -5.260046277568956 0.6291596747270701 -5.259985309294287 0.6453770636689588 C -5.2593604371943075 0.678570674586378 -5.232105711083371 0.7050612494979425 -5.198907752465928 0.704742165632972 L -4.020852969453137 0.704742165632972 C -3.9876550108356943 0.7050612494979425 -3.9604002847247575 0.678570674586378 -3.9597754126247775 0.6453770636689588" fill="url(#gradient-e29245c8-50f1-4e43-938f-ae630c530252_0)" transform="matrix(1,0,0,1,0,0)" fill-rule="nonzero"></path></g><g clip-path="url(#a6c84852f-0285-4cf2-819f-a2c77d4004a5c4015a5e-733f-4d91-b4b8-bec18493c553)"><path d=" M -4.720904517997999 0.9743967249387393 C -4.737121906939888 0.9743357566640702 -4.75269267139955 0.980751114904771 -4.764160178129939 0.9922186216351594 C -4.775627684860327 1.003686128365548 -4.782043043101028 1.0192568928252101 -4.781982074826359 1.0354742817670988 C -4.781357202726379 1.068667892684518 -4.754102476615443 1.0951584675960826 -4.720904517997999 1.094839383731112 L -4.36836714325786 1.094839383731112 C -4.335169184640417 1.0951584675960826 -4.30791445852948 1.0686678926845181 -4.3072895864295 1.0354742817670988 C -4.307228618154832 1.0192568928252097 -4.313643976395532 1.0036861283655476 -4.325111483125921 0.9922186216351592 C -4.336578989856309 0.9807511149047707 -4.352149754315971 0.9743357566640702 -4.36836714325786 0.9743967249387393 Z" fill="url(#gradient-e29245c8-50f1-4e43-938f-ae630c530252_1)" transform="matrix(1,0,0,1,0,0)" fill-rule="nonzero"></path></g><g clip-path="url(#a6c84852f-0285-4cf2-819f-a2c77d4004a5c4015a5e-733f-4d91-b4b8-bec18493c553)"><path d=" M -4.464949597607005 1.3999988405576638 L -5.063395490867306 1.3999988405576638 C -5.096877865643546 1.4005503043782237 -5.123870063550214 1.4275930494719828 -5.124358884038042 1.4610763973860235 C -5.124358884038042 1.4949830037000849 -5.0971879335237436 1.52203979055676 -5.063395490867306 1.52203979055676 L -4.464949597607005 1.52203979055676 C -4.4310429912929425 1.52203979055676 -4.403872040778644 1.4949830037000849 -4.403872040778644 1.4610763973860235 C -4.404362458597665 1.4275494328963636 -4.431422633117344 1.4004892583766846 -4.464949597607004 1.3999988405576638" fill="url(#gradient-e29245c8-50f1-4e43-938f-ae630c530252_2)" transform="matrix(1,0,0,1,0,0)" fill-rule="nonzero"></path></g><g clip-path="url(#a6c84852f-0285-4cf2-819f-a2c77d4004a5c4015a5e-733f-4d91-b4b8-bec18493c553)"><path d=" M -4.5852780927417545 1.7915801862049041 L -4.93952792234624 1.7915801862049041 C -4.972481849540154 1.7918627605239834 -4.999386129973648 1.8180127153378467 -5.0006054791746 1.850945288168917 C -5.0006054791746 1.8848518944829786 -4.971722073795955 1.912022844997277 -4.93952792234624 1.912022844997277 L -4.5852780927417545 1.912022844997277 C -4.552018771365297 1.9120228443675624 -4.525056764511673 1.8850608370244548 -4.525056764485766 1.8518015156479977 C -4.52505676445986 1.818542194271541 -4.552018771271483 1.791580186886431 -4.58527809264794 1.7915801862049041" fill="url(#gradient-e29245c8-50f1-4e43-938f-ae630c530252_3)" transform="matrix(1,0,0,1,0,0)" fill-rule="nonzero"></path></g><g clip-path="url(#a6c84852f-0285-4cf2-819f-a2c77d4004a5c4015a5e-733f-4d91-b4b8-bec18493c553)"><path d=" M -2.5426619305492113 0.05697757227949052 L -2.5426619305492113 0.19431645240008244 C -2.5154909800349126 0.19260399753573587 -2.4884341931782377 0.19260399753573587 -2.4612632426639394 0.19260399753573587 C -2.4342064558072645 0.19260399753573587 -2.4070355052929657 0.19260399753573587 -2.379978718436291 0.19431645240008244 L -2.379978718436291 0.05697757227949052 C -2.302868967949098 0.02363801747771732 -2.252906090444771 -0.05229299833451456 -2.252800403844155 -0.13630150007642133 C -2.2528004027340636 -0.21079849398030207 -2.292544074933735 -0.279636554995564 -2.3570603634832303 -0.3168850518831393 C -2.4215766520327255 -0.35413354877071457 -2.5010639977190414 -0.35413354863090885 -2.565580286137508 -0.3168850515163854 C -2.630096574555975 -0.279636554401862 -2.6698402465134956 -0.2107984932467943 -2.669840245141347 -0.13630149996125673 C -2.669840245141347 -0.049879611255733036 -2.617210798977097 0.02478342082977575 -2.5426619305492113 0.05697757227949052" fill="url(#gradient-e29245c8-50f1-4e43-938f-ae630c530252_4)" transform="matrix(1,0,0,1,0,0)" fill-rule="nonzero"></path></g><g clip-path="url(#a6c84852f-0285-4cf2-819f-a2c77d4004a5c4015a5e-733f-4d91-b4b8-bec18493c553)"><path d=" M -3.8902497451323086 2.034177958653996 C -3.8163344681708073 1.9870807741210466 -3.7303857129421827 1.9623427560109623 -3.6427429354054226 1.9629398362971804 C -3.555669414023902 1.9625819247074925 -3.470335871106302 1.9873139873087853 -3.396948580542884 2.034177958653996 L -1.5254637411273717 2.034177958653996 C -1.4520818340939918 1.9873020998067719 -1.3667447151676742 1.9625690007774996 -1.2796693862648332 1.9629398362971804 C -1.1881101328511052 1.9629398362971804 -1.1051131537591097 1.9883983319471321 -1.0338750314022942 2.034177958653996 L -0.6711770911336989 2.034177958653996 C -0.6711770911336989 1.0439223924312082 -1.472948458620745 0.24352098883563922 -2.4612632426639403 0.24352098883563922 C -3.4494638630495116 0.24352098883563922 -4.251349394194181 1.0439223924312082 -4.251349394194181 2.034177958653996 Z M -0.8236997377181625 1.8883909678692947 L -1.0865044775665442 1.8883909678692947 C -1.1440429610085872 1.2677973250301113 -1.4526273275638326 0.7472110462687658 -1.878115279525134 0.49456687194884097 C -1.3017029721860913 0.7133044399547046 -0.8796399299534823 1.2473620303155764 -0.8236997377181625 1.8883909678692947" fill="url(#gradient-e29245c8-50f1-4e43-938f-ae630c530252_5)" transform="matrix(1,0,0,1,0,0)" fill-rule="nonzero"></path></g><g clip-path="url(#a6c84852f-0285-4cf2-819f-a2c77d4004a5c4015a5e-733f-4d91-b4b8-bec18493c553)"><path d=" M -1.2797835499224557 2.013742663939461 C -1.3886482861431064 2.0135603572837617 -1.493105001002189 2.0567338204545247 -1.5700733905274684 2.133723631741431 C -1.6470417800527475 2.2107134430283373 -1.6901861733139527 2.3151821681638127 -1.6899735717622617 2.42404684943689 C -1.6902767239363778 2.5331072833854376 -1.6472197409183993 2.637816332766084 -1.5702842924128197 2.71511579536145 C -1.4933488439072398 2.7924152579568156 -1.388844199848024 2.8359660120130403 -1.2797835499224601 2.836177653456289 C -1.0523113625090375 2.835925780911302 -0.8680068874425704 2.651519141501671 -0.8678810732183031 2.42404684943689 C -0.8680625385451908 2.3150060605785083 -0.9115685925569963 2.210506774422936 -0.9888219166041265 2.1335532138283217 C -1.0660752406512577 2.056599653233708 -1.1707428796400787 2.013500199742879 -1.2797835499224703 2.013742663939461 M -1.2797835499224557 2.63604876164299 C -1.3555245385246368 2.6360079748963012 -1.4254903386246158 2.59556294979853 -1.463325510241027 2.5299489360000194 C -1.5011606818574386 2.46433492220151 -1.5011171623146482 2.3835202493701546 -1.4632113450033755 2.3179470228828234 C -1.4253055276921027 2.252373796395492 -1.3552962080497077 2.2120041493571723 -1.279555219448135 2.212044937232491 C -1.203814234005029 2.2120857239774785 -1.1338484339050492 2.2525307490752495 -1.096013262288639 2.31814476287376 C -1.058178090672227 2.38375877667227 -1.0582216102150168 2.4645734495036256 -1.09612742752629 2.5301466759909563 C -1.1340332448375623 2.595719902478287 -1.2040425644799573 2.6360895495166075 -1.279783553081531 2.6360487616412893" fill="url(#gradient-e29245c8-50f1-4e43-938f-ae630c530252_6)" transform="matrix(1,0,0,1,0,0)" fill-rule="nonzero"></path></g><g clip-path="url(#a6c84852f-0285-4cf2-819f-a2c77d4004a5c4015a5e-733f-4d91-b4b8-bec18493c553)"><path d=" M -3.3308478227791083 2.084980786296277 C -3.2686858798819673 2.1409220179175996 -3.223474675768251 2.21318874575291 -3.2003587621159024 2.293557788773684 L -1.7221677232119763 2.293557788773684 C -1.6990142980412544 2.21317815240154 -1.6537635725427045 2.1409114780257963 -1.591564498891148 2.084980786296277 Z" fill="url(#gradient-e29245c8-50f1-4e43-938f-ae630c530252_7)" transform="matrix(1,0,0,1,0,0)" fill-rule="nonzero"></path></g><g clip-path="url(#a6c84852f-0285-4cf2-819f-a2c77d4004a5c4015a5e-733f-4d91-b4b8-bec18493c553)"><path d=" M -4.31242695102254 2.084980786296277 C -4.340090777886856 2.08473757261576 -4.366716481471298 2.0955020518113616 -4.386438460176789 2.1149028256519427 C -4.406160438882281 2.134303599492524 -4.417360641174487 2.1607489690746027 -4.417571679693417 2.1884130601028073 C -4.417571679693417 2.2460657072024737 -4.3700795981222065 2.293557788773684 -4.31242695102254 2.293557788773684 L -4.086953727216914 2.293557788773684 C -4.061495231566962 2.2121591008884125 -4.017428059724444 2.13920852366725 -3.9564646665537078 2.084980786296277 Z" fill="url(#gradient-e29245c8-50f1-4e43-938f-ae630c530252_8)" transform="matrix(1,0,0,1,0,0)" fill-rule="nonzero"></path></g><g clip-path="url(#a6c84852f-0285-4cf2-819f-a2c77d4004a5c4015a5e-733f-4d91-b4b8-bec18493c553)"><path d=" M -3.642857099063046 2.013742663939461 C -3.751897769345438 2.013500199742883 -3.8565654083342578 2.0565996532337154 -3.9338187323813854 2.1335532138283324 C -4.011072056428514 2.210506774422949 -4.054578110440315 2.315006060578523 -4.054759575767199 2.4240468494368903 C -4.054633761542951 2.6515191415016366 -3.870329286476499 2.8359257809112832 -3.6428570990630806 2.8361776534562884 C -3.5337964491374816 2.835966012013041 -3.4292918050782655 2.7924152579568173 -3.3523563565726855 2.715115795361452 C -3.2754209080671046 2.6378163327660875 -3.2323639250491256 2.533107283385441 -3.2326670772232404 2.42404684943689 C -3.2324544756715476 2.31518216816382 -3.27559886893275 2.2107134430283435 -3.352567258458029 2.133723631741436 C -3.4295356479833066 2.0567338204545287 -3.5339923628423886 2.0135603572837635 -3.642857099063039 2.013742663939461 M -3.642857099063046 2.63604876164299 C -3.718598087665227 2.6360079748963012 -3.788563887765206 2.59556294979853 -3.8263990593816173 2.5299489360000194 C -3.864234230998029 2.46433492220151 -3.8641907114552385 2.3835202493701546 -3.826284894143966 2.3179470228828234 C -3.788379076832693 2.252373796395492 -3.7183697571902985 2.2120041493571723 -3.6426287685887253 2.212044937232491 C -3.566887783145619 2.2120857239774785 -3.49692198304564 2.2525307490752495 -3.459086811429229 2.31814476287376 C -3.4212516398128177 2.38375877667227 -3.4212951593556076 2.4645734495036256 -3.4592009766668808 2.5301466759909563 C -3.497106793978153 2.595719902478287 -3.567116113620548 2.6360895495166075 -3.642857102222121 2.6360487616412893" fill="url(#gradient-e29245c8-50f1-4e43-938f-ae630c530252_9)" transform="matrix(1,0,0,1,0,0)" fill-rule="nonzero"></path></g><g clip-path="url(#a6c84852f-0285-4cf2-819f-a2c77d4004a5c4015a5e-733f-4d91-b4b8-bec18493c553)"><path d=" M -1.2797835499224557 2.3477855261446576 C -1.300037245902697 2.347693948117513 -1.3194878659246827 2.3556991890979737 -1.3338095380930275 2.370020861266318 C -1.3481312102613727 2.384342533434663 -1.3561364512418326 2.4037931534566486 -1.3560448732146884 2.42404684943689 C -1.3560448732146884 2.466515730072684 -1.3221382669006267 2.5021347912510916 -1.2797835499224557 2.5021347912510916 C -1.2374288329442855 2.5021347912510916 -1.2018097717658769 2.466515730072684 -1.2018097717658769 2.42404684943689 C -1.2024358646075486 2.381521630606691 -1.2372549131534312 2.347467275659913 -1.2797835499224557 2.3477855261446576" fill="url(#gradient-e29245c8-50f1-4e43-938f-ae630c530252_10)" transform="matrix(1,0,0,1,0,0)" fill-rule="nonzero"></path></g><g clip-path="url(#a6c84852f-0285-4cf2-819f-a2c77d4004a5c4015a5e-733f-4d91-b4b8-bec18493c553)"><path d=" M -3.642857099063046 2.3477855261446576 C -3.685385735832071 2.347467275659913 -3.7202047843779535 2.381521630606691 -3.7208308772196252 2.42404684943689 C -3.7208308772196252 2.466515730072684 -3.6852118160412175 2.5021347912510916 -3.642857099063046 2.5021347912510916 C -3.6005023820848754 2.5021347912510916 -3.566595775770814 2.466515730072684 -3.566595775770814 2.42404684943689 C -3.5665041977436687 2.403793153456651 -3.574509438724129 2.3843425334346646 -3.5888311108924733 2.37002086126632 C -3.6031527830608177 2.3556991890979746 -3.6226034030828034 2.3476939481175134 -3.6428570990630442 2.3477855261446576" fill="url(#gradient-e29245c8-50f1-4e43-938f-ae630c530252_11)" transform="matrix(1,0,0,1,0,0)" fill-rule="nonzero"></path></g><g clip-path="url(#a6c84852f-0285-4cf2-819f-a2c77d4004a5c4015a5e-733f-4d91-b4b8-bec18493c553)"><path d=" M -0.6100995343053395 2.084980786296277 L -0.9660618187741719 2.084980786296277 C -0.906696716810159 2.13920852366725 -0.8610312537609177 2.2121591008884125 -0.8372852129753126 2.293557788773684 L -0.6100995343053395 2.293557788773684 C -0.5524468872056731 2.293557788773684 -0.5049548056344619 2.2460657072024737 -0.5049548056344619 2.1884130601028073 C -0.5051658441533915 2.1607489690746036 -0.5163660464455972 2.134303599492525 -0.5360880251510887 2.1149028256519435 C -0.555810003856581 2.095502051811362 -0.5824357074410225 2.08473757261576 -0.6100995343053386 2.084980786296277" fill="url(#gradient-e29245c8-50f1-4e43-938f-ae630c530252_12)" transform="matrix(1,0,0,1,0,0)" fill-rule="nonzero"></path></g></g></g><defs><clipPath id="SvgjsClipPath1002"><path d=" M -5.259985309294287 -0.3448864552141009 h 4.7549853092942875 v 3.1810641086703892 h -4.7549853092942875 Z"></path></clipPath><clipPath id="a6c84852f-0285-4cf2-819f-a2c77d4004a5c4015a5e-733f-4d91-b4b8-bec18493c553"><path d=" M -5.259985309294287 2.8361776534562884 L -0.5050689692920844 2.8361776534562884 L -0.5050689692920844 -0.34487850255382896 L -5.259985309294287 -0.34487850255382896 Z"></path></clipPath><linearGradient id="gradient-e29245c8-50f1-4e43-938f-ae630c530252_0" x1="0" x2="1" y1="0" y2="1"><stop stop-color="#bf5e2e" offset="0"></stop><stop stop-color="#a75128" offset="1"></stop></linearGradient><linearGradient id="gradient-e29245c8-50f1-4e43-938f-ae630c530252_1" x1="0" x2="1" y1="0" y2="1"><stop stop-color="#ae542a" offset="0"></stop><stop stop-color="#a44f27" offset="1"></stop></linearGradient><linearGradient id="gradient-e29245c8-50f1-4e43-938f-ae630c530252_2" x1="0" x2="1" y1="0" y2="1"><stop stop-color="#a95229" offset="0"></stop><stop stop-color="#9b4a25" offset="1"></stop></linearGradient><linearGradient id="gradient-e29245c8-50f1-4e43-938f-ae630c530252_3" x1="0" x2="1" y1="0" y2="1"><stop stop-color="#9e4c26" offset="0"></stop><stop stop-color="#944624" offset="1"></stop></linearGradient><linearGradient id="gradient-e29245c8-50f1-4e43-938f-ae630c530252_4" x1="0" x2="1" y1="0" y2="1"><stop stop-color="#ac532a" offset="0"></stop><stop stop-color="#994824" offset="1"></stop></linearGradient><linearGradient id="gradient-e29245c8-50f1-4e43-938f-ae630c530252_5" x1="0" x2="1" y1="0" y2="1"><stop stop-color="#b7592c" offset="0"></stop><stop stop-color="#542213" offset="1"></stop></linearGradient><linearGradient id="gradient-e29245c8-50f1-4e43-938f-ae630c530252_6" x1="0" x2="1" y1="0" y2="1"><stop stop-color="#652c17" offset="0"></stop><stop stop-color="#451a0f" offset="1"></stop></linearGradient><linearGradient id="gradient-e29245c8-50f1-4e43-938f-ae630c530252_7" x1="0" x2="1" y1="0" y2="1"><stop stop-color="#7d391d" offset="0"></stop><stop stop-color="#5d2715" offset="1"></stop></linearGradient><linearGradient id="gradient-e29245c8-50f1-4e43-938f-ae630c530252_8" x1="0" x2="1" y1="0" y2="1"><stop stop-color="#8e4322" offset="0"></stop><stop stop-color="#823c1f" offset="1"></stop></linearGradient><linearGradient id="gradient-e29245c8-50f1-4e43-938f-ae630c530252_9" x1="0" x2="1" y1="0" y2="1"><stop stop-color="#8a4021" offset="0"></stop><stop stop-color="#6a2f19" offset="1"></stop></linearGradient><linearGradient id="gradient-e29245c8-50f1-4e43-938f-ae630c530252_10" x1="0" x2="1" y1="0" y2="1"><stop stop-color="#582414" offset="0"></stop><stop stop-color="#512112" offset="1"></stop></linearGradient><linearGradient id="gradient-e29245c8-50f1-4e43-938f-ae630c530252_11" x1="0" x2="1" y1="0" y2="1"><stop stop-color="#7d391d" offset="0"></stop><stop stop-color="#77361c" offset="1"></stop></linearGradient><linearGradient id="gradient-e29245c8-50f1-4e43-938f-ae630c530252_12" x1="0" x2="1" y1="0" y2="1"><stop stop-color="#582514" offset="0"></stop><stop stop-color="#4c1e11" offset="1"></stop></linearGradient></defs></svg>